# xmcd CD database file
#
# Track frame offsets:
#	150
#	27670
#	50415
#	79617
#	115480
#	128477
#	166680
#	188292
#	222220
#	233735
#
# Disc length: 3538 seconds
#
# Revision: 0
# Processed by: cddbd v1.5.2PL0 Copyright (c) Steve Scherf et al.
# Submitted via: CDex 1.51
#
DISCID=760dd00a
DTITLE=Eugen Apostolidis Quartet - Imaginary Directions
DYEAR=1997
DGENRE=Jazz
TTITLE0=Destination
TTITLE1=Circle
TTITLE2=Minor Billy
TTITLE3=My Socks
TTITLE4=Don't Ask Me
TTITLE5=Sula's Dream
TTITLE6=Body and Soul
TTITLE7=Trial
TTITLE8=Speak Low
TTITLE9=Groove Positive
EXTD=YEAR: 1997
EXTT0=
EXTT1=
EXTT2=
EXTT3=
EXTT4=
EXTT5=
EXTT6=
EXTT7=
EXTT8=
EXTT9=
PLAYORDER=
